<svg xmlns="http://www.w3.org/2000/svg" viewBox="0 0 512 512" width="100%" height="100%" role="img" aria-label="Book and Moon Logo">
  <!-- Background Card -->
  <rect width="100%" height="100%" rx="80" fill="#FAFAFA" />
  
  <g transform="translate(0, 5)">
    <!-- Crescent Moon -->
    <path d="M 270,65 C 150,65 140,225 240,230 C 280,232 310,215 325,195 C 290,225 240,210 215,175 C 190,135 220,85 270,65 Z" fill="#1BA173" />
    
    <!-- Left Outer Book Cover -->
    <path d="M 85,175 L 115,182 L 115,320 C 115,355 160,390 250,435 C 160,400 85,365 85,330 Z" fill="#151A2C" />
    
    <!-- Right Outer Book Cover -->
    <path d="M 427,175 L 397,182 L 397,320 C 397,355 352,390 262,435 C 352,400 427,365 427,330 Z" fill="#151A2C" />
    
    <!-- Left Inner Book Page -->
    <path d="M 125,150 C 160,155 195,175 225,220 C 202,185 182,180 155,180 L 155,310 C 155,335 182,370 250,420 C 172,370 125,345 125,310 Z" fill="#151A2C" />
    
    <!-- Right Inner Book Page -->
    <path d="M 387,150 C 352,155 317,175 287,220 C 310,185 330,180 357,180 L 357,310 C 357,335 330,370 262,420 C 340,370 387,345 387,310 Z" fill="#151A2C" />
  </g>
</svg>
